<svg width="151" height="30" viewBox="0 0 151 30" fill="none" xmlns="http://www.w3.org/2000/svg">
<g clip-path="url(#clip0_118_299)">
<path d="M12 27C18.6274 27 24 21.6274 24 15C24 8.37258 18.6274 3 12 3C5.37258 3 0 8.37258 0 15C0 21.6274 5.37258 27 12 27Z" fill="#0369A1" stroke="black" stroke-width="0.676056"/>
<mask id="mask0_118_299" style="mask-type:alpha" maskUnits="userSpaceOnUse" x="0" y="3" width="24" height="24">
<path d="M12.0001 26.662C18.4408 26.662 23.6621 21.4407 23.6621 15C23.6621 8.55926 18.4408 3.33801 12.0001 3.33801C5.55936 3.33801 0.33812 8.55926 0.33812 15C0.33812 21.4407 5.55936 26.662 12.0001 26.662Z" fill="#C4C4C4"/>
</mask>
<g mask="url(#mask0_118_299)">
<path d="M5.58226 31.4843C13.2391 33.0687 20.7307 28.1461 22.3152 20.4892C23.8997 12.8323 18.977 5.34075 11.3202 3.75628C3.66329 2.1718 -3.8283 7.09445 -5.41278 14.7513C-6.99726 22.4082 -2.07461 29.8998 5.58226 31.4843Z" fill="#0EA5E9"/>
<path d="M12.0002 65.4507C23.8548 65.4507 33.4649 55.8406 33.4649 43.9859C33.4649 32.1312 23.8548 22.5211 12.0002 22.5211C0.145476 22.5211 -9.46464 32.1312 -9.46464 43.9859C-9.46464 55.8406 0.145476 65.4507 12.0002 65.4507Z" fill="#EAB308" stroke="black" stroke-width="0.676056"/>
<path d="M13.3522 67.2254C25.3936 67.2254 35.155 57.4639 35.155 45.4226C35.155 33.3812 25.3936 23.6198 13.3522 23.6198C1.31085 23.6198 -8.4506 33.3812 -8.4506 45.4226C-8.4506 57.4639 1.31085 67.2254 13.3522 67.2254Z" fill="#FBBF24"/>
</g>
<path d="M12.7037 14.7826H10.9018V22.3905H12.7037V14.7826Z" fill="white" stroke="black" stroke-width="0.600628"/>
<path d="M20.7001 10.0109L20.7998 9.4278L20.7079 9.41211L20.6157 9.42541L20.7001 10.0109ZM17.5504 11.9637V12.5553H17.8527L18.0298 12.3103L17.5504 11.9637ZM20.6068 10.5014L20.9662 10.9712L20.6068 10.5014ZM19.1199 12.3214L19.6997 12.2039L19.1199 12.3214ZM19.2939 12.7214L19.8017 12.4179L19.2939 12.7214ZM19.3551 13.1992L19.8524 13.5197L19.3551 13.1992ZM17.7328 12.6623L18.1713 12.2652L17.7328 12.6623ZM17.5525 12.4345L18.0508 12.1157L17.8762 11.843H17.5525V12.4345ZM12.3366 12.4345H11.745V13.0261H12.3366V12.4345ZM12.3366 11.9637V11.3722H11.745V11.9637H12.3366ZM20.6157 9.42541C18.8646 9.67799 17.5408 10.9672 17.0709 11.6173L18.0298 12.3103C18.3953 11.8046 19.4683 10.7863 20.7846 10.5964L20.6157 9.42541ZM20.9662 10.9712C21.1004 10.8685 21.2233 10.754 21.3132 10.6226C21.4026 10.4918 21.4937 10.2916 21.4563 10.0509C21.4175 9.80086 21.2621 9.64234 21.1369 9.55908C21.017 9.47936 20.8924 9.44363 20.7998 9.4278L20.6005 10.594C20.5825 10.5909 20.5378 10.5815 20.4819 10.5444C20.4208 10.5037 20.3139 10.4041 20.2872 10.2321C20.262 10.0694 20.3286 9.96641 20.3367 9.9547C20.3451 9.94234 20.3295 9.96873 20.2473 10.0316L20.9662 10.9712ZM19.6997 12.2039C19.7201 12.3046 19.6941 12.364 19.7005 12.3452C19.7039 12.3351 19.7173 12.3027 19.7516 12.2458C19.8197 12.1328 19.9319 11.9852 20.0774 11.8192C20.3681 11.4876 20.7302 11.1518 20.9662 10.9712L20.2473 10.0316C19.9422 10.2651 19.5238 10.656 19.1878 11.0393C19.0201 11.2307 18.8573 11.4375 18.7381 11.6354C18.6787 11.734 18.6205 11.8462 18.5803 11.9647C18.5429 12.0745 18.5013 12.2465 18.5402 12.4388L19.6997 12.2039ZM19.8017 12.4179C19.734 12.3046 19.7107 12.2582 19.6997 12.2039L18.5402 12.4388C18.596 12.7144 18.7225 12.9183 18.7862 13.0249L19.8017 12.4179ZM19.8524 13.5197C19.9924 13.3024 20.0369 13.0622 19.982 12.8226C19.9395 12.6372 19.8377 12.4782 19.8017 12.4179L18.7862 13.0249C18.8133 13.0705 18.8256 13.0914 18.8341 13.108C18.8415 13.1227 18.8347 13.1129 18.8288 13.087C18.8218 13.0564 18.8179 13.0127 18.827 12.9638C18.8358 12.9164 18.8525 12.8872 18.858 12.8786L19.8524 13.5197ZM17.2944 13.0594C17.7004 13.5077 18.1741 13.7622 18.5986 13.8626C18.8082 13.9121 19.0238 13.9282 19.223 13.8971C19.3967 13.8701 19.6806 13.7861 19.8524 13.5197L18.858 12.8786C18.9566 12.7257 19.0829 12.7216 19.041 12.7281C19.0248 12.7306 18.9666 12.7339 18.8707 12.7112C18.6844 12.6672 18.4201 12.5399 18.1713 12.2652L17.2944 13.0594ZM17.0543 12.7535C17.1207 12.8572 17.2032 12.9587 17.2944 13.0594L18.1713 12.2652C18.1041 12.1909 18.0685 12.1434 18.0508 12.1157L17.0543 12.7535ZM17.5525 11.843H12.3366V13.0261H17.5525V11.843ZM12.9281 12.4345V11.9637H11.745V12.4345H12.9281ZM12.3366 12.5553H17.5504V11.3722H12.3366V12.5553Z" fill="black"/>
<path d="M11.1012 13.669C11.4766 13.5616 11.6776 13.1995 11.6025 12.8328C11.5189 12.4985 11.1978 12.2738 10.8484 12.2841L11.4998 12.1814C11.8665 12.1063 12.2199 12.3397 12.295 12.7064C12.37 13.0731 12.1691 13.4352 11.7936 13.5425L11.1012 13.669Z" fill="white"/>
<path d="M12.0845 17.352C11.8551 17.352 11.6692 17.5379 11.6692 17.7672C11.6692 17.9966 11.8551 18.1825 12.0845 18.1825H12.3217C12.5511 18.1825 12.737 17.9966 12.737 17.7672C12.737 17.5379 12.5511 17.352 12.3217 17.352H12.0845Z" fill="black"/>
<path d="M11.3503 19.6877C11.121 19.6877 10.9351 19.8736 10.9351 20.1029C10.9351 20.3323 11.121 20.5182 11.3503 20.5182H11.5876C11.8169 20.5182 12.0028 20.3323 12.0028 20.1029C12.0028 19.8736 11.8169 19.6877 11.5876 19.6877H11.3503Z" fill="black"/>
<path fill-rule="evenodd" clip-rule="evenodd" d="M17.5504 11.9637C17.968 11.3859 19.1664 10.2321 20.7001 10.0109C20.8494 10.0364 21.0396 10.1702 20.6067 10.5014C20.0656 10.9155 19.0457 11.9548 19.1199 12.3213C19.1534 12.4862 19.2282 12.6115 19.2939 12.7213C19.3931 12.8873 19.4716 13.0185 19.3551 13.1991C19.2089 13.4259 18.3876 13.3853 17.7328 12.6622C17.6536 12.5748 17.5946 12.5002 17.5525 12.4345H12.3365V11.9637H17.5504Z" fill="white"/>
<path d="M10.3165 7.28163L10.8811 10.8954C10.9547 11.3659 11.3599 11.7127 11.836 11.7127C12.3122 11.7127 12.7174 11.3659 12.7909 10.8954L13.3556 7.28163C13.5013 6.34889 12.7801 5.50623 11.836 5.50623C10.892 5.50623 10.1708 6.34889 10.3165 7.28163Z" fill="white" stroke="black" stroke-width="0.734101"/>
<path d="M7.85653 15.8467L10.856 13.7534C11.2466 13.481 11.3803 12.9646 11.1714 12.5368C10.9624 12.1089 10.473 11.897 10.018 12.0374L6.52295 13.1157C5.62085 13.3941 5.18012 14.4119 5.59439 15.2603C6.00866 16.1086 7.08234 16.3869 7.85653 15.8467Z" fill="white" stroke="black" stroke-width="0.734101"/>
<path d="M16.8513 13.5788L13.5186 12.0715C13.0848 11.8752 12.5727 12.0243 12.3118 12.4226C12.051 12.8209 12.1191 13.35 12.4724 13.6692L15.1865 16.1213C15.887 16.7542 16.987 16.6124 17.5042 15.8226C18.0213 15.0328 17.7115 13.9678 16.8513 13.5788Z" fill="white" stroke="black" stroke-width="0.734101"/>
<path d="M14.1797 12.7127C14.1797 14.0184 13.1418 15.0562 11.8362 15.0562C10.5305 15.0562 9.49262 14.0184 9.49262 12.7127C9.49262 11.407 10.5305 10.3691 11.8362 10.3691C13.1418 10.3691 14.1797 11.407 14.1797 12.7127Z" fill="white"/>
<path d="M13.4253 11.0478C13.3544 10.9768 13.2597 10.8821 13.165 10.8347C13.8515 11.7579 13.7805 13.06 12.9519 13.8886C12.1233 14.7172 10.8213 14.7882 9.89802 14.1017C9.96909 14.1727 10.0401 14.291 10.1111 14.362C11.0344 15.2854 12.5021 15.2854 13.4253 14.362C14.3487 13.4388 14.3487 11.9711 13.4253 11.0478Z" fill="#CCCCCC"/>
<path d="M12.5031 12.6944C12.5031 13.0723 12.2141 13.3613 11.8362 13.3613C11.4582 13.3613 11.1691 13.0723 11.1691 12.6944C11.1691 12.3164 11.4582 12.0273 11.8362 12.0273C12.2141 12.0273 12.5031 12.3387 12.5031 12.6944Z" fill="black"/>
<path d="M11.8361 15.391C10.3629 15.391 9.15769 14.1858 9.15769 12.7126C9.15769 11.2396 10.3629 10.0343 11.8361 10.0343C13.3091 10.0343 14.5144 11.2396 14.5144 12.7126C14.5144 14.1858 13.3091 15.391 11.8361 15.391ZM11.8361 10.7039C10.7312 10.7039 9.82724 11.6079 9.82724 12.7126C9.82724 13.8175 10.7312 14.7215 11.8361 14.7215C12.9408 14.7215 13.8448 13.8175 13.8448 12.7126C13.8448 11.6079 12.9408 10.7039 11.8361 10.7039Z" fill="black"/>
<path d="M12.4283 10.8388C12.3827 11.1306 12.1314 11.3457 11.836 11.3457C11.5408 11.3457 11.2894 11.1306 11.2438 10.8388L10.6792 7.22499C10.5683 6.51485 11.1173 5.87329 11.836 5.87329C12.5548 5.87329 13.1039 6.51485 12.9929 7.22499L12.4283 10.8388Z" fill="white"/>
<path d="M10.1263 12.3882C10.4085 12.3011 10.7121 12.4325 10.8417 12.6979C10.9712 12.9632 10.8883 13.2835 10.6461 13.4525L7.64657 15.5457C7.05714 15.957 6.23971 15.7451 5.92431 15.0992C5.60891 14.4534 5.94445 13.6784 6.63126 13.4666L10.1263 12.3882Z" fill="white"/>
<path d="M12.7185 13.3968C12.4993 13.1988 12.4571 12.8707 12.6188 12.6236C12.7806 12.3766 13.0982 12.2842 13.3673 12.4059L16.6999 13.9131C17.3548 14.2093 17.5908 15.0202 17.197 15.6215C16.8033 16.2228 15.9657 16.3307 15.4324 15.8489L12.7185 13.3968Z" fill="white"/>
<path d="M33.38 8.72V23H36.52V18.4L38.32 16.58L42.62 23H46.56L40.44 14.36L46.02 8.72H42.1L36.52 14.64V8.72H33.38ZM50.4336 11.06V8.72H47.5936V11.06H50.4336ZM47.5936 12.66V23H50.4336V12.66H47.5936ZM52.6698 12.66V23H55.5098V17.58C55.5098 16.5267 55.6832 15.7733 56.0298 15.32C56.3765 14.8533 56.9365 14.62 57.7098 14.62C58.3898 14.62 58.8632 14.8333 59.1298 15.26C59.3965 15.6733 59.5298 16.3067 59.5298 17.16V23H62.3698V16.64C62.3698 16 62.3098 15.42 62.1898 14.9C62.0832 14.3667 61.8898 13.92 61.6098 13.56C61.3298 13.1867 60.9432 12.9 60.4498 12.7C59.9698 12.4867 59.3498 12.38 58.5898 12.38C57.9898 12.38 57.4032 12.52 56.8298 12.8C56.2565 13.0667 55.7898 13.5 55.4298 14.1H55.3698V12.66H52.6698ZM71.5653 16.3H74.3453C74.3053 15.6333 74.1453 15.06 73.8653 14.58C73.5853 14.0867 73.2186 13.68 72.7653 13.36C72.3253 13.0267 71.8186 12.78 71.2453 12.62C70.6853 12.46 70.0986 12.38 69.4853 12.38C68.6453 12.38 67.8986 12.52 67.2453 12.8C66.592 13.08 66.0386 13.4733 65.5853 13.98C65.132 14.4733 64.7853 15.0667 64.5453 15.76C64.3186 16.44 64.2053 17.18 64.2053 17.98C64.2053 18.7533 64.332 19.4667 64.5853 20.12C64.8386 20.76 65.192 21.3133 65.6453 21.78C66.0986 22.2467 66.6453 22.6133 67.2853 22.88C67.9386 23.1333 68.652 23.26 69.4253 23.26C70.7986 23.26 71.9253 22.9 72.8053 22.18C73.6853 21.46 74.2186 20.4133 74.4053 19.04H71.6653C71.572 19.68 71.3386 20.1933 70.9653 20.58C70.6053 20.9533 70.0853 21.14 69.4053 21.14C68.9653 21.14 68.592 21.04 68.2853 20.84C67.9786 20.64 67.732 20.3867 67.5453 20.08C67.372 19.76 67.2453 19.4067 67.1653 19.02C67.0853 18.6333 67.0453 18.2533 67.0453 17.88C67.0453 17.4933 67.0853 17.1067 67.1653 16.72C67.2453 16.32 67.3786 15.96 67.5653 15.64C67.7653 15.3067 68.0186 15.04 68.3253 14.84C68.632 14.6267 69.012 14.52 69.4653 14.52C70.6786 14.52 71.3786 15.1133 71.5653 16.3ZM78.9297 11.06V8.72H76.0897V11.06H78.9297ZM76.0897 12.66V23H78.9297V12.66H76.0897ZM81.1659 12.66V23H84.0059V18.34C84.0059 17.8733 84.0526 17.44 84.1459 17.04C84.2393 16.64 84.3926 16.2933 84.6059 16C84.8326 15.6933 85.1259 15.4533 85.4859 15.28C85.8459 15.1067 86.2859 15.02 86.8059 15.02C86.9793 15.02 87.1593 15.0333 87.3459 15.06C87.5326 15.0733 87.6926 15.0933 87.8259 15.12V12.48C87.5993 12.4133 87.3926 12.38 87.2059 12.38C86.8459 12.38 86.4993 12.4333 86.1659 12.54C85.8326 12.6467 85.5193 12.8 85.2259 13C84.9326 13.1867 84.6726 13.42 84.4459 13.7C84.2193 13.9667 84.0393 14.26 83.9059 14.58H83.8659V12.66H81.1659ZM94.8058 8.72V23H97.9458V8.72H94.8058ZM102.604 19.64H99.9042C99.9309 20.3333 100.084 20.9133 100.364 21.38C100.658 21.8333 101.024 22.2 101.464 22.48C101.918 22.76 102.431 22.96 103.004 23.08C103.578 23.2 104.164 23.26 104.764 23.26C105.351 23.26 105.924 23.2 106.484 23.08C107.058 22.9733 107.564 22.78 108.004 22.5C108.444 22.22 108.798 21.8533 109.064 21.4C109.344 20.9333 109.484 20.36 109.484 19.68C109.484 19.2 109.391 18.8 109.204 18.48C109.018 18.1467 108.771 17.8733 108.464 17.66C108.158 17.4333 107.804 17.2533 107.404 17.12C107.018 16.9867 106.618 16.8733 106.204 16.78C105.804 16.6867 105.411 16.6 105.024 16.52C104.638 16.44 104.291 16.3533 103.984 16.26C103.691 16.1533 103.451 16.02 103.264 15.86C103.078 15.7 102.984 15.4933 102.984 15.24C102.984 15.0267 103.038 14.86 103.144 14.74C103.251 14.6067 103.378 14.5067 103.524 14.44C103.684 14.3733 103.858 14.3333 104.044 14.32C104.231 14.2933 104.404 14.28 104.564 14.28C105.071 14.28 105.511 14.38 105.884 14.58C106.258 14.7667 106.464 15.1333 106.504 15.68H109.204C109.151 15.04 108.984 14.5133 108.704 14.1C108.438 13.6733 108.098 13.3333 107.684 13.08C107.271 12.8267 106.798 12.6467 106.264 12.54C105.744 12.4333 105.204 12.38 104.644 12.38C104.084 12.38 103.538 12.4333 103.004 12.54C102.471 12.6333 101.991 12.8067 101.564 13.06C101.138 13.3 100.791 13.6333 100.524 14.06C100.271 14.4867 100.144 15.0333 100.144 15.7C100.144 16.1533 100.238 16.54 100.424 16.86C100.611 17.1667 100.858 17.4267 101.164 17.64C101.471 17.84 101.818 18.0067 102.204 18.14C102.604 18.26 103.011 18.3667 103.424 18.46C104.438 18.6733 105.224 18.8867 105.784 19.1C106.358 19.3133 106.644 19.6333 106.644 20.06C106.644 20.3133 106.584 20.5267 106.464 20.7C106.344 20.86 106.191 20.9933 106.004 21.1C105.831 21.1933 105.631 21.2667 105.404 21.32C105.191 21.36 104.984 21.38 104.784 21.38C104.504 21.38 104.231 21.3467 103.964 21.28C103.711 21.2133 103.484 21.1133 103.284 20.98C103.084 20.8333 102.918 20.6533 102.784 20.44C102.664 20.2133 102.604 19.9467 102.604 19.64ZM111.226 8.72V23H114.066V8.72H111.226ZM116.183 15.84C116.223 15.1733 116.389 14.62 116.683 14.18C116.976 13.74 117.349 13.3867 117.803 13.12C118.256 12.8533 118.763 12.6667 119.323 12.56C119.896 12.44 120.469 12.38 121.043 12.38C121.563 12.38 122.089 12.42 122.623 12.5C123.156 12.5667 123.643 12.7067 124.083 12.92C124.523 13.1333 124.883 13.4333 125.163 13.82C125.443 14.1933 125.583 14.6933 125.583 15.32V20.7C125.583 21.1667 125.609 21.6133 125.663 22.04C125.716 22.4667 125.809 22.7867 125.943 23H123.063C123.009 22.84 122.963 22.68 122.923 22.52C122.896 22.3467 122.876 22.1733 122.863 22C122.409 22.4667 121.876 22.7933 121.263 22.98C120.649 23.1667 120.023 23.26 119.383 23.26C118.889 23.26 118.429 23.2 118.003 23.08C117.576 22.96 117.203 22.7733 116.883 22.52C116.563 22.2667 116.309 21.9467 116.123 21.56C115.949 21.1733 115.863 20.7133 115.863 20.18C115.863 19.5933 115.963 19.1133 116.163 18.74C116.376 18.3533 116.643 18.0467 116.963 17.82C117.296 17.5933 117.669 17.4267 118.083 17.32C118.509 17.2 118.936 17.1067 119.363 17.04C119.789 16.9733 120.209 16.92 120.623 16.88C121.036 16.84 121.403 16.78 121.723 16.7C122.043 16.62 122.296 16.5067 122.483 16.36C122.669 16.2 122.756 15.9733 122.743 15.68C122.743 15.3733 122.689 15.1333 122.583 14.96C122.489 14.7733 122.356 14.6333 122.183 14.54C122.023 14.4333 121.829 14.3667 121.603 14.34C121.389 14.3 121.156 14.28 120.903 14.28C120.343 14.28 119.903 14.4 119.583 14.64C119.263 14.88 119.076 15.28 119.023 15.84H116.183ZM122.743 17.94C122.623 18.0467 122.469 18.1333 122.283 18.2C122.109 18.2533 121.916 18.3 121.703 18.34C121.503 18.38 121.289 18.4133 121.063 18.44C120.836 18.4667 120.609 18.5 120.383 18.54C120.169 18.58 119.956 18.6333 119.743 18.7C119.543 18.7667 119.363 18.86 119.203 18.98C119.056 19.0867 118.936 19.2267 118.843 19.4C118.749 19.5733 118.703 19.7933 118.703 20.06C118.703 20.3133 118.749 20.5267 118.843 20.7C118.936 20.8733 119.063 21.0133 119.223 21.12C119.383 21.2133 119.569 21.28 119.783 21.32C119.996 21.36 120.216 21.38 120.443 21.38C121.003 21.38 121.436 21.2867 121.743 21.1C122.049 20.9133 122.276 20.6933 122.423 20.44C122.569 20.1733 122.656 19.9067 122.683 19.64C122.723 19.3733 122.743 19.16 122.743 19V17.94ZM127.787 12.66V23H130.627V17.58C130.627 16.5267 130.8 15.7733 131.147 15.32C131.494 14.8533 132.054 14.62 132.827 14.62C133.507 14.62 133.98 14.8333 134.247 15.26C134.514 15.6733 134.647 16.3067 134.647 17.16V23H137.487V16.64C137.487 16 137.427 15.42 137.307 14.9C137.2 14.3667 137.007 13.92 136.727 13.56C136.447 13.1867 136.06 12.9 135.567 12.7C135.087 12.4867 134.467 12.38 133.707 12.38C133.107 12.38 132.52 12.52 131.947 12.8C131.374 13.0667 130.907 13.5 130.547 14.1H130.487V12.66H127.787ZM146.983 17.8C146.983 18.2267 146.943 18.64 146.863 19.04C146.783 19.44 146.649 19.8 146.463 20.12C146.276 20.4267 146.023 20.6733 145.703 20.86C145.396 21.0467 145.009 21.14 144.543 21.14C144.103 21.14 143.723 21.0467 143.403 20.86C143.096 20.66 142.836 20.4067 142.623 20.1C142.423 19.78 142.276 19.42 142.183 19.02C142.089 18.62 142.043 18.22 142.043 17.82C142.043 17.3933 142.083 16.9867 142.163 16.6C142.256 16.2 142.396 15.8467 142.583 15.54C142.783 15.2333 143.043 14.9867 143.363 14.8C143.683 14.6133 144.076 14.52 144.543 14.52C145.009 14.52 145.396 14.6133 145.703 14.8C146.009 14.9867 146.256 15.2333 146.443 15.54C146.643 15.8333 146.783 16.18 146.863 16.58C146.943 16.9667 146.983 17.3733 146.983 17.8ZM147.023 21.68V23H149.723V8.72H146.883V13.92H146.843C146.523 13.4133 146.083 13.0333 145.523 12.78C144.976 12.5133 144.396 12.38 143.783 12.38C143.023 12.38 142.356 12.5333 141.783 12.84C141.209 13.1333 140.729 13.5267 140.343 14.02C139.969 14.5133 139.683 15.0867 139.483 15.74C139.296 16.38 139.203 17.0467 139.203 17.74C139.203 18.46 139.296 19.1533 139.483 19.82C139.683 20.4867 139.969 21.08 140.343 21.6C140.729 22.1067 141.216 22.5133 141.803 22.82C142.389 23.1133 143.069 23.26 143.842 23.26C144.523 23.26 145.129 23.14 145.663 22.9C146.209 22.6467 146.649 22.24 146.983 21.68H147.023Z" fill="white"/>
</g>
<defs>
<clipPath id="clip0_118_299">
<rect width="151" height="30" fill="white"/>
</clipPath>
</defs>
</svg>
