<svg width="25" height="26" viewBox="0 0 25 26" fill="none" xmlns="http://www.w3.org/2000/svg">
<path d="M12 25C18.6274 25 24 19.6274 24 13C24 6.37258 18.6274 1 12 1C5.37258 1 0 6.37258 0 13C0 19.6274 5.37258 25 12 25Z" fill="#0369A1" stroke="black" stroke-width="0.676056"/>
<mask id="mask0_118_300" style="mask-type:alpha" maskUnits="userSpaceOnUse" x="0" y="1" width="24" height="24">
<path d="M12.0001 24.662C18.4408 24.662 23.6621 19.4407 23.6621 13C23.6621 6.55926 18.4408 1.33801 12.0001 1.33801C5.55936 1.33801 0.33812 6.55926 0.33812 13C0.33812 19.4407 5.55936 24.662 12.0001 24.662Z" fill="#C4C4C4"/>
</mask>
<g mask="url(#mask0_118_300)">
<path d="M5.58226 29.4843C13.2391 31.0687 20.7307 26.1461 22.3152 18.4892C23.8997 10.8323 18.977 3.34075 11.3202 1.75628C3.66329 0.171801 -3.8283 5.09445 -5.41278 12.7513C-6.99726 20.4082 -2.07461 27.8998 5.58226 29.4843Z" fill="#0EA5E9"/>
<path d="M12.0002 63.4507C23.8548 63.4507 33.4649 53.8406 33.4649 41.9859C33.4649 30.1312 23.8548 20.5211 12.0002 20.5211C0.145476 20.5211 -9.46464 30.1312 -9.46464 41.9859C-9.46464 53.8406 0.145476 63.4507 12.0002 63.4507Z" fill="#EAB308" stroke="black" stroke-width="0.676056"/>
<path d="M13.3522 65.2254C25.3936 65.2254 35.155 55.4639 35.155 43.4226C35.155 31.3812 25.3936 21.6198 13.3522 21.6198C1.31085 21.6198 -8.4506 31.3812 -8.4506 43.4226C-8.4506 55.4639 1.31085 65.2254 13.3522 65.2254Z" fill="#FBBF24"/>
</g>
<path d="M12.7037 12.7826H10.9018V20.3905H12.7037V12.7826Z" fill="white" stroke="black" stroke-width="0.600628"/>
<path d="M20.7001 8.0109L20.7998 7.4278L20.7079 7.41211L20.6157 7.42541L20.7001 8.0109ZM17.5504 9.96375V10.5553H17.8527L18.0298 10.3103L17.5504 9.96375ZM20.6068 8.50144L20.9662 8.97123L20.6068 8.50144ZM19.1199 10.3214L19.6997 10.2039L19.1199 10.3214ZM19.2939 10.7214L19.8017 10.4179L19.2939 10.7214ZM19.3551 11.1992L19.8524 11.5197L19.3551 11.1992ZM17.7328 10.6623L18.1713 10.2652L17.7328 10.6623ZM17.5525 10.4345L18.0508 10.1157L17.8762 9.84299H17.5525V10.4345ZM12.3366 10.4345H11.745V11.0261H12.3366V10.4345ZM12.3366 9.96375V9.3722H11.745V9.96375H12.3366ZM20.6157 7.42541C18.8646 7.67799 17.5408 8.96717 17.0709 9.61727L18.0298 10.3103C18.3953 9.80462 19.4683 8.78626 20.7846 8.59639L20.6157 7.42541ZM20.9662 8.97123C21.1004 8.86853 21.2233 8.75398 21.3132 8.62258C21.4026 8.49183 21.4937 8.29164 21.4563 8.05089C21.4175 7.80086 21.2621 7.64234 21.1369 7.55908C21.017 7.47936 20.8924 7.44363 20.7998 7.4278L20.6005 8.594C20.5825 8.59091 20.5378 8.58148 20.4819 8.54438C20.4208 8.50372 20.3139 8.40414 20.2872 8.23215C20.262 8.06944 20.3286 7.96641 20.3367 7.9547C20.3451 7.94234 20.3295 7.96873 20.2473 8.03165L20.9662 8.97123ZM19.6997 10.2039C19.7201 10.3046 19.6941 10.364 19.7005 10.3452C19.7039 10.3351 19.7173 10.3027 19.7516 10.2458C19.8197 10.1328 19.9319 9.98521 20.0774 9.81916C20.3681 9.48764 20.7302 9.15181 20.9662 8.97123L20.2473 8.03165C19.9422 8.26509 19.5238 8.65603 19.1878 9.03928C19.0201 9.23065 18.8573 9.43752 18.7381 9.63535C18.6787 9.73397 18.6205 9.8462 18.5803 9.96468C18.5429 10.0745 18.5013 10.2465 18.5402 10.4388L19.6997 10.2039ZM19.8017 10.4179C19.734 10.3046 19.7107 10.2582 19.6997 10.2039L18.5402 10.4388C18.596 10.7144 18.7225 10.9183 18.7862 11.0249L19.8017 10.4179ZM19.8524 11.5197C19.9924 11.3024 20.0369 11.0622 19.982 10.8226C19.9395 10.6372 19.8377 10.4782 19.8017 10.4179L18.7862 11.0249C18.8133 11.0705 18.8256 11.0914 18.8341 11.108C18.8415 11.1227 18.8347 11.1129 18.8288 11.087C18.8218 11.0564 18.8179 11.0127 18.827 10.9638C18.8358 10.9164 18.8525 10.8872 18.858 10.8786L19.8524 11.5197ZM17.2944 11.0594C17.7004 11.5077 18.1741 11.7622 18.5986 11.8626C18.8082 11.9121 19.0238 11.9282 19.223 11.8971C19.3967 11.8701 19.6806 11.7861 19.8524 11.5197L18.858 10.8786C18.9566 10.7257 19.0829 10.7216 19.041 10.7281C19.0248 10.7306 18.9666 10.7339 18.8707 10.7112C18.6844 10.6672 18.4201 10.5399 18.1713 10.2652L17.2944 11.0594ZM17.0543 10.7535C17.1207 10.8572 17.2032 10.9587 17.2944 11.0594L18.1713 10.2652C18.1041 10.1909 18.0685 10.1434 18.0508 10.1157L17.0543 10.7535ZM17.5525 9.84299H12.3366V11.0261H17.5525V9.84299ZM12.9281 10.4345V9.96375H11.745V10.4345H12.9281ZM12.3366 10.5553H17.5504V9.3722H12.3366V10.5553Z" fill="black"/>
<path d="M11.1012 11.669C11.4766 11.5616 11.6776 11.1995 11.6025 10.8328C11.5189 10.4985 11.1978 10.2738 10.8484 10.2841L11.4998 10.1814C11.8665 10.1063 12.2199 10.3397 12.295 10.7064C12.37 11.0731 12.1691 11.4352 11.7936 11.5425L11.1012 11.669Z" fill="white"/>
<path d="M12.0845 15.352C11.8551 15.352 11.6692 15.5379 11.6692 15.7672C11.6692 15.9966 11.8551 16.1825 12.0845 16.1825H12.3217C12.5511 16.1825 12.737 15.9966 12.737 15.7672C12.737 15.5379 12.5511 15.352 12.3217 15.352H12.0845Z" fill="black"/>
<path d="M11.3503 17.6877C11.121 17.6877 10.9351 17.8736 10.9351 18.1029C10.9351 18.3323 11.121 18.5182 11.3503 18.5182H11.5876C11.8169 18.5182 12.0028 18.3323 12.0028 18.1029C12.0028 17.8736 11.8169 17.6877 11.5876 17.6877H11.3503Z" fill="black"/>
<path fill-rule="evenodd" clip-rule="evenodd" d="M17.5504 9.96371C17.968 9.38585 19.1664 8.2321 20.7001 8.01086C20.8494 8.03636 21.0396 8.17017 20.6067 8.5014C20.0656 8.91545 19.0457 9.95484 19.1199 10.3213C19.1534 10.4862 19.2282 10.6115 19.2939 10.7213C19.3931 10.8873 19.4716 11.0185 19.3551 11.1991C19.2089 11.4259 18.3876 11.3853 17.7328 10.6622C17.6536 10.5748 17.5946 10.5002 17.5525 10.4345H12.3365V9.96371H17.5504Z" fill="white"/>
<path d="M10.3165 5.28163L10.8811 8.89544C10.9547 9.36589 11.3599 9.71271 11.836 9.71271C12.3122 9.71271 12.7174 9.36589 12.7909 8.89544L13.3556 5.28163C13.5013 4.34889 12.7801 3.50623 11.836 3.50623C10.892 3.50623 10.1708 4.34889 10.3165 5.28163Z" fill="white" stroke="black" stroke-width="0.734101"/>
<path d="M7.85653 13.8467L10.856 11.7534C11.2466 11.481 11.3803 10.9646 11.1714 10.5368C10.9624 10.1089 10.473 9.89699 10.018 10.0374L6.52295 11.1157C5.62085 11.3941 5.18012 12.4119 5.59439 13.2603C6.00866 14.1086 7.08234 14.3869 7.85653 13.8467Z" fill="white" stroke="black" stroke-width="0.734101"/>
<path d="M16.8513 11.5788L13.5186 10.0715C13.0848 9.87523 12.5727 10.0243 12.3118 10.4226C12.051 10.8209 12.1191 11.35 12.4724 11.6692L15.1865 14.1213C15.887 14.7542 16.987 14.6124 17.5042 13.8226C18.0213 13.0328 17.7115 11.9678 16.8513 11.5788Z" fill="white" stroke="black" stroke-width="0.734101"/>
<path d="M14.1797 10.7127C14.1797 12.0184 13.1418 13.0562 11.8362 13.0562C10.5305 13.0562 9.49262 12.0184 9.49262 10.7127C9.49262 9.40703 10.5305 8.36914 11.8362 8.36914C13.1418 8.36914 14.1797 9.40703 14.1797 10.7127Z" fill="white"/>
<path d="M13.4253 9.04778C13.3544 8.97676 13.2597 8.88207 13.165 8.83472C13.8515 9.75795 13.7805 11.06 12.9519 11.8886C12.1233 12.7172 10.8213 12.7882 9.89802 12.1017C9.96909 12.1727 10.0401 12.291 10.1111 12.362C11.0344 13.2854 12.5021 13.2854 13.4253 12.362C14.3487 11.4388 14.3487 9.97107 13.4253 9.04778Z" fill="#CCCCCC"/>
<path d="M12.5031 10.6944C12.5031 11.0723 12.2141 11.3613 11.8362 11.3613C11.4582 11.3613 11.1691 11.0723 11.1691 10.6944C11.1691 10.3164 11.4582 10.0273 11.8362 10.0273C12.2141 10.0273 12.5031 10.3387 12.5031 10.6944Z" fill="black"/>
<path d="M11.8361 13.391C10.3629 13.391 9.15769 12.1858 9.15769 10.7126C9.15769 9.2396 10.3629 8.0343 11.8361 8.0343C13.3091 8.0343 14.5144 9.2396 14.5144 10.7126C14.5144 12.1858 13.3091 13.391 11.8361 13.391ZM11.8361 8.7039C10.7312 8.7039 9.82724 9.60788 9.82724 10.7126C9.82724 11.8175 10.7312 12.7215 11.8361 12.7215C12.9408 12.7215 13.8448 11.8175 13.8448 10.7126C13.8448 9.60788 12.9408 8.7039 11.8361 8.7039Z" fill="black"/>
<path d="M12.4283 8.83879C12.3827 9.13056 12.1314 9.34571 11.836 9.34571C11.5408 9.34571 11.2894 9.13056 11.2438 8.83879L10.6792 5.22499C10.5683 4.51485 11.1173 3.87329 11.836 3.87329C12.5548 3.87329 13.1039 4.51485 12.9929 5.22499L12.4283 8.83879Z" fill="white"/>
<path d="M10.1263 10.3882C10.4085 10.3011 10.7121 10.4325 10.8417 10.6979C10.9712 10.9632 10.8883 11.2835 10.6461 11.4525L7.64657 13.5457C7.05714 13.957 6.23971 13.7451 5.92431 13.0992C5.60891 12.4534 5.94445 11.6784 6.63126 11.4666L10.1263 10.3882Z" fill="white"/>
<path d="M12.7185 11.3968C12.4993 11.1988 12.4571 10.8707 12.6188 10.6236C12.7806 10.3766 13.0982 10.2842 13.3673 10.4059L16.6999 11.9131C17.3548 12.2093 17.5908 13.0202 17.197 13.6215C16.8033 14.2228 15.9657 14.3307 15.4324 13.8489L12.7185 11.3968Z" fill="white"/>
</svg>
